# xmcd
#
# Track frame offsets: 
#        150
#        10487
#        22260
#        34847
#        46760
#        62815
#        78155
#        94230
#        107010
#        120082
#        183172
#
# Disc length: 3282 seconds
#
# Revision: 2
# Processed by: cddbd v1.5.2PL0 Copyright (c) Steve Scherf et al.
# Submitted via: ExactAudioCopyFreeDBPlugin 1.0
#
DISCID=810cd00b
DTITLE=Thomas Roth-Cláudio Fragata-Josias Damasceno - Festa Junina 3
DYEAR=2003
DGENRE=Country
TTITLE0=Thomas Roth - Quermesse Recreio
TTITLE1=Thomas Roth - Pau-De-Sebo
TTITLE2=Thomas Roth and Cláudio Fragata - Pescaria Quermesse
TTITLE3=Thomas Roth and Tatiana Parra - O Gago Apaixonado
TTITLE4=Tatiana Parra - Quem Foi?
TTITLE5=Cida De Souza - O Mais Importante É O Que Se Tem No Coração
TTITLE6=Josias Damasceno - Alto Falante
TTITLE7=Thomas Roth - Cadeia De Brincadeira
TTITLE8=Thomas Roth - Baita Festa
TTITLE9=Thomas Roth - Quadrilha (Com Marcação)
TTITLE10=Josias Damasceno - Quadrilha (Instrumental)
EXTD=
EXTT0=
EXTT1=
EXTT2=
EXTT3=
EXTT4=
EXTT5=
EXTT6=
EXTT7=
EXTT8=
EXTT9=
EXTT10=
PLAYORDER=
